<svg width="50" height="50" viewBox="0 0 50 50" fill="none" xmlns="http://www.w3.org/2000/svg">
<path fill-rule="evenodd" clip-rule="evenodd" d="M35.9141 11.6286H17.7998V9.22861H35.9141C40.4901 9.22861 44.1998 12.9382 44.1998 17.5143C44.1998 22.0904 40.4901 25.8 35.9141 25.8H32.1998V23.4H35.9141C39.1646 23.4 41.7998 20.7649 41.7998 17.5143C41.7998 14.2637 39.1646 11.6286 35.9141 11.6286Z" fill="white"/>
<path fill-rule="evenodd" clip-rule="evenodd" d="M15.3426 38.3714H31.7998V40.7714H15.3426C10.5456 40.7714 6.65691 36.8826 6.65691 32.0857C6.65691 27.2887 10.5456 23.4 15.3426 23.4H16.9998V25.8H15.3426C11.8711 25.8 9.05691 28.6142 9.05691 32.0857C9.05691 35.5572 11.8711 38.3714 15.3426 38.3714Z" fill="white"/>
<path fill-rule="evenodd" clip-rule="evenodd" d="M34 34V45.2H45.2V34H34Z" fill="white" fill-opacity="0.5"/>
<path fill-rule="evenodd" clip-rule="evenodd" d="M5 5V16.2H16.2V5H5Z" fill="white" fill-opacity="0.5"/>
<path fill-rule="evenodd" clip-rule="evenodd" d="M24.4286 29.8571C27.4267 29.8571 29.8571 27.4267 29.8571 24.4286C29.8571 21.4305 27.4267 19 24.4286 19C21.4305 19 19 21.4305 19 24.4286C19 27.4267 21.4305 29.8571 24.4286 29.8571Z" fill="white" fill-opacity="0.5"/>
</svg>
