<svg width="82" height="51" viewBox="0 0 82 51" fill="none" xmlns="http://www.w3.org/2000/svg">
<path d="M0.453932 17.8779H11.5665V15.1631H3.69256V0H0.453932V17.8779Z" fill="white"/>
<path d="M29.0691 0H25.8479V12.1863H25.6908L17.2756 0H14.3774V17.8779H17.616V5.70034H17.7645L26.1884 17.8779H29.0691V0Z" fill="white"/>
<path d="M15.7567 34.126C15.2067 30.1541 12.1514 27.8495 8.18823 27.8495C3.51797 27.8495 0 31.254 0 37.0329C0 42.803 3.47432 46.2163 8.18823 46.2163C12.4395 46.2163 15.2591 43.4665 15.7567 40.0533L12.4919 40.0358C12.0816 42.1309 10.3706 43.3093 8.23188 43.3093C5.3337 43.3093 3.25609 41.1357 3.25609 37.0329C3.25609 32.9999 5.31624 30.7564 8.24061 30.7564C10.4142 30.7564 12.1165 31.9872 12.4919 34.126H15.7567Z" fill="white"/>
<path d="M22.4413 46.2424C24.5451 46.2424 25.8021 45.256 26.3782 44.1299H26.483V45.9718H29.5209V36.9979C29.5209 33.4538 26.6314 32.3888 24.0737 32.3888C21.2541 32.3888 19.0891 33.6458 18.3908 36.0901L21.3413 36.5091C21.6556 35.5925 22.546 34.8069 24.0911 34.8069C25.5577 34.8069 26.3608 35.5576 26.3608 36.8757V36.9281C26.3608 37.836 25.4093 37.8796 23.0436 38.1328C20.4422 38.4121 17.9543 39.189 17.9543 42.2094C17.9543 44.8457 19.8835 46.2424 22.4413 46.2424ZM23.2618 43.9204C21.9437 43.9204 21.0009 43.3181 21.0009 42.1571C21.0009 40.9437 22.0572 40.4374 23.4713 40.2366C24.3006 40.1231 25.9592 39.9136 26.3695 39.5819V41.1619C26.3695 42.6546 25.1649 43.9204 23.2618 43.9204Z" fill="white"/>
<path d="M32.6984 51H35.8584V43.8593H35.9894C36.487 44.837 37.5258 46.2075 39.8303 46.2075C42.9904 46.2075 45.3561 43.7022 45.3561 39.2851C45.3561 34.8156 42.9206 32.3888 39.8216 32.3888C37.4559 32.3888 36.4695 33.8117 35.9894 34.7807H35.8061V32.5634H32.6984V51ZM35.7973 39.2676C35.7973 36.6662 36.9147 34.9814 38.9487 34.9814C41.0525 34.9814 42.1349 36.771 42.1349 39.2676C42.1349 41.7817 41.035 43.6149 38.9487 43.6149C36.9322 43.6149 35.7973 41.869 35.7973 39.2676Z" fill="white"/>
<path d="M48.0622 45.9718H51.2223V32.5634H48.0622V45.9718ZM49.651 30.6604C50.6549 30.6604 51.4754 29.8922 51.4754 28.9494C51.4754 27.9979 50.6549 27.2297 49.651 27.2297C48.6384 27.2297 47.8178 27.9979 47.8178 28.9494C47.8178 29.8922 48.6384 30.6604 49.651 30.6604Z" fill="white"/>
<path d="M61.1673 32.5634H58.5223V29.3509H55.3622V32.5634H53.4592V35.0076H55.3622V42.4626C55.3448 44.9854 57.178 46.225 59.5524 46.1551C60.4515 46.129 61.0713 45.9544 61.4118 45.8409L60.8793 43.3705C60.7047 43.4141 60.3468 43.4927 59.9539 43.4927C59.1595 43.4927 58.5223 43.2133 58.5223 41.9388V35.0076H61.1673V32.5634Z" fill="white"/>
<path d="M67.6686 46.2424C69.7724 46.2424 71.0294 45.256 71.6056 44.1299H71.7103V45.9718H74.7482V36.9979C74.7482 33.4538 71.8587 32.3888 69.301 32.3888C66.4814 32.3888 64.3165 33.6458 63.6181 36.0901L66.5687 36.5091C66.8829 35.5925 67.7733 34.8069 69.3185 34.8069C70.785 34.8069 71.5881 35.5576 71.5881 36.8757V36.9281C71.5881 37.836 70.6366 37.8796 68.2709 38.1328C65.6695 38.4121 63.1816 39.189 63.1816 42.2094C63.1816 44.8457 65.1109 46.2424 67.6686 46.2424ZM68.4892 43.9204C67.171 43.9204 66.2282 43.3181 66.2282 42.1571C66.2282 40.9437 67.2845 40.4374 68.6987 40.2366C69.528 40.1231 71.1866 39.9136 71.5969 39.5819V41.1619C71.5969 42.6546 70.3922 43.9204 68.4892 43.9204Z" fill="white"/>
<path d="M81.0858 28.0939H77.9257V45.9718H81.0858V28.0939Z" fill="white"/>
</svg>
